<?xml version="1.0" encoding="utf-8"?>
<!-- Generator: Adobe Illustrator 27.2.0, SVG Export Plug-In . SVG Version: 6.00 Build 0)  -->
<svg version="1.1" xmlns="http://www.w3.org/2000/svg" xmlns:xlink="http://www.w3.org/1999/xlink" x="0px" y="0px"
	 viewBox="0 0 895 1280" style="enable-background:new 0 0 895 1280;" xml:space="preserve">
<g id="envelope">
	<g transform="translate(0.000000,1280.000000) scale(0.100000,-0.100000)">
		<path d="M686,12789c-278-46-510-248-604-524l-27-80l-3-2521l-2-2521l25-98c77-303,333-525,650-564c123-15,7424-16,7544-1
			c186,24,326,93,456,224c118,120,178,232,210,391c14,72,15,322,13,2580l-3,2500l-28,80c-86,253-259,426-512,513l-80,27l-3795,1
			C2443,12797,713,12794,686,12789z M8175,12311c-11-10-330-290-710-621c-379-332-1200-1049-1823-1594c-844-738-1149-1000-1197-1025
			c-118-63-269-52-367,27c-37,29-3308,3221-3308,3228c0,2,1671,4,3712,4C8130,12330,8194,12330,8175,12311z M8478,8455l-3-1165
			L7376,8620c-604,732-1107,1341-1117,1354l-19,24l1118,976l1117,976l3-1165C8479,10144,8479,9096,8478,8455z M1539,10916
			c557-543,1011-992,1009-997c-4-12-2022-2457-2028-2458c-3-1-5,1000-5,2224s3,2224,6,2223C524,11906,982,11460,1539,10916z
			 M7025,8310l1127-1365l-3667-3c-2017-1-3688,1-3712,5c-25,5-46,12-47,16c-1,9,2155,2625,2165,2626c3,1,195-184,428-411
			c232-227,448-432,479-456c274-213,692-213,977,1c33,25,296,252,585,505s528,457,532,454C5895,9678,6405,9061,7025,8310z"/>
	</g>
</g>
<g id="circle">
	<ellipse cx="443.9" cy="316.7" rx="267.5" ry="283.5"/>
</g>
</svg>
